<svg fill="#000000" xmlns="http://www.w3.org/2000/svg" viewBox="0 0 24 24" width="100px" height="100px"><path d="M 11 0 L 11 2 L 10 2 L 10 3.3496094 C 7.6726687 4.1753239 6 6.3920697 6 9 L 6 9.1875 C 4.8426788 9.6048678 4 10.706873 4 12 L 4 14 C 4 15.293127 4.8426788 16.395132 6 16.8125 L 6 22 L 8 22 L 8 19 L 16 19 L 16 22 L 18 22 L 18 16.8125 C 19.157321 16.395132 20 15.293127 20 14 L 20 12 C 20 10.706873 19.157321 9.6048678 18 9.1875 L 18 9 C 18 6.3920697 16.327331 4.1753239 14 3.3496094 L 14 2 L 13 2 L 13 0 L 11 0 z M 7 11 L 17 11 C 17.56503 11 18 11.43497 18 12 L 18 14 C 18 14.56503 17.56503 15 17 15 L 7 15 C 6.4349698 15 6 14.56503 6 14 L 6 12 C 6 11.43497 6.4349698 11 7 11 z M 8 12 L 8 14 L 10 14 L 10 12 L 8 12 z M 14 12 L 14 14 L 16 14 L 16 12 L 14 12 z"/></svg>