<svg fill="#000000" xmlns="http://www.w3.org/2000/svg" viewBox="0 0 24 24" width="100px" height="100px"><path d="M17,14c-1.486,1.33-1.872,9-5,9s-2.966-6.888-5-9c-1.173-1.017-3-2.966-3-5c0-0.939,0.905-2.531,2-3c0,0,0.916-5,6-5 s6,5,6,5c1.017,0.391,2,2.061,2,3C20,11.112,18.095,12.983,17,14z M12.899,12.129c0.469,0-0.626-2.112-0.939-2.112 c-0.235,0-1.33,2.112-0.939,2.112c0.469,0,0.704-0.469,0.939-0.469S12.587,12.129,12.899,12.129z M8.447,10.895 C8.552,10.843,11,9.588,11,7c0-0.553-0.447-1-1-1S9,6.447,9,7c0,1.333-1.418,2.09-1.452,2.108c-0.49,0.248-0.688,0.847-0.442,1.339 C7.281,10.798,7.634,11,8.001,11C8.151,11,8.304,10.966,8.447,10.895z M16.889,10.451c0.249-0.489,0.053-1.091-0.436-1.343 C16.438,9.101,15,8.342,15,7c0-0.553-0.447-1-1-1s-1,0.447-1,1c0,2.588,2.448,3.843,2.553,3.895C15.696,10.966,15.848,11,15.997,11 C16.361,11,16.712,10.799,16.889,10.451z M13,20v-5c0-0.553-0.447-1-1-1s-1,0.447-1,1v5c0,0.553,0.447,1,1,1S13,20.553,13,20z"/></svg>