<?xml version="1.0"?><svg fill="#000000" xmlns="http://www.w3.org/2000/svg" viewBox="0 0 24 24" width="100px" height="100px">    <path d="M 11.5 1 A 3.5 3.5 0 0 0 8 4.5 A 3.5 3.5 0 0 0 11.5 8 A 3.5 3.5 0 0 0 15 4.5 A 3.5 3.5 0 0 0 11.5 1 z M 7 9 C 5.346 9 4 10.346 4 12 L 4 16 L 7.2304688 16 C 8.4124688 19.877 11.497 22 16 22 C 16.96 22 18.361266 21.936531 19.447266 21.394531 L 21.498047 20.369141 L 19.351562 19.5625 C 16.854563 18.6265 16.220266 17.081 16.072266 16 L 19 16 L 19 12 C 19 10.346 17.654 9 16 9 L 7 9 z"/></svg>