<svg fill="#000000" xmlns="http://www.w3.org/2000/svg" viewBox="0 0 24 24" width="100px" height="100px"><path d="M 8.5859375 1 L 5 4.5859375 L 5 8.7636719 L 3.9199219 10.923828 L 5.03125 14.257812 L 6.1015625 19.601562 L 9.6972656 22 L 12 22 L 14.302734 22 L 17.898438 19.601562 L 18.96875 14.257812 L 20.080078 10.923828 L 19 8.7636719 L 19 4.5859375 L 15.414062 1 L 8.5859375 1 z M 8.6347656 3.7792969 L 10.322266 8 L 13.677734 8 L 15.365234 3.7792969 L 17 5.4140625 L 17 9.2363281 L 17.919922 11.076172 L 17.03125 13.742188 L 16.101562 18.398438 L 14.925781 19.181641 L 13.330078 18 L 10.669922 18 L 9.0742188 19.181641 L 7.8984375 18.398438 L 6.96875 13.742188 L 6.0800781 11.076172 L 7 9.2363281 L 7 5.4140625 L 8.6347656 3.7792969 z M 7.2421875 10.029297 L 6.7578125 11.970703 L 10.757812 12.970703 L 11.242188 11.029297 L 7.2421875 10.029297 z M 16.757812 10.029297 L 12.757812 11.029297 L 13.242188 12.970703 L 17.242188 11.970703 L 16.757812 10.029297 z"/></svg>