<svg fill="#000000" xmlns="http://www.w3.org/2000/svg" viewBox="0 0 24 24" width="100px" height="100px"><path d="M 12 2 C 9.5166869 2 7.0048981 2.7664349 5.1074219 4.5449219 C 3.2099456 6.3234089 2 9.08921 2 12.800781 A 1.0001 1.0001 0 0 0 2.2597656 13.472656 L 4 15.386719 L 4 21 L 5 21 L 6 21 L 18 21 L 19 21 L 20 21 L 20 15.386719 L 21.740234 13.472656 A 1.0001 1.0001 0 0 0 22 12.800781 C 22 9.0892101 20.790054 6.3234089 18.892578 4.5449219 C 16.995102 2.7664349 14.483313 2 12 2 z M 8.5 8 C 9.881 8 11 9.119 11 10.5 C 11 10.735 10.957484 10.957828 10.896484 11.173828 C 11.249484 11.071828 11.615 11 12 11 C 12.385 11 12.750516 11.071828 13.103516 11.173828 C 13.042516 10.957828 13 10.735 13 10.5 C 13 9.119 14.119 8 15.5 8 C 16.881 8 18 9.119 18 10.5 C 18 11.881 16.881 13 15.5 13 C 15.48 13 15.461406 12.994141 15.441406 12.994141 C 15.787406 13.586141 16 14.266 16 15 L 16 18 L 14 18 L 14 15 C 14 13.897 13.103 13 12 13 C 10.897 13 10 13.897 10 15 L 10 18 L 8 18 L 8 15 C 8 14.266 8.2125937 13.586141 8.5585938 12.994141 C 8.5385937 12.995141 8.52 13 8.5 13 C 7.119 13 6 11.881 6 10.5 C 6 9.119 7.119 8 8.5 8 z"/></svg>