<?xml version="1.0"?><svg fill="#000000" xmlns="http://www.w3.org/2000/svg" viewBox="0 0 24 24" width="100px" height="100px">    <path d="M 12 2 C 8.5 2 6 4.1 6 7 L 5 7 L 5 10 L 5.4003906 10.099609 L 4.8007812 11.199219 L 7.5996094 14 L 8.0996094 14 L 9.0996094 22 L 14.900391 22 L 15.900391 14 L 16.400391 14 L 19.199219 11.199219 L 18.599609 10.099609 L 19 10 L 19 7 L 18 7 C 18 4.1 15.5 2 12 2 z M 12 4 C 13.9 4 16 4.9 16 7 L 8 7 C 8 4.9 10.1 4 12 4 z M 12 10 L 13 11 L 16.599609 10.400391 L 16.800781 10.800781 L 15.599609 12 L 14 12 L 14 12.900391 L 13.767578 15 L 10.224609 15 L 10 12.900391 L 10 12 L 8.4003906 12 L 7.1992188 10.800781 L 7.4003906 10.400391 L 11 11 L 12 10 z M 11 11 L 11 13 L 13 13 L 13 11 L 11 11 z M 10.556641 17 L 13.443359 17 L 13.099609 20 L 10.900391 20 L 10.556641 17 z"/></svg>