<svg fill="#000000" xmlns="http://www.w3.org/2000/svg" viewBox="0 0 24 24" width="100px" height="100px"><path d="M 6.8242188 4.0019531 C 6.3263945 4.0195811 5.8224219 4.1466406 5.3339844 4.4316406 C 4.0449844 5.1846406 3.2300156 6.3452656 3.0410156 7.6972656 C 2.9169986 8.5830119 3.072562 9.4870828 3.4746094 10.318359 C 2.0415718 11.744156 1 13.181488 1 14.259766 C 1 17.369766 9.46 21 12 21 C 14.54 21 23 17.369766 23 14.259766 C 23 13.181488 21.958428 11.744156 20.525391 10.318359 C 20.926643 9.4877686 21.080932 8.5821814 20.957031 7.6972656 C 20.768031 6.3452656 19.953063 5.1865938 18.664062 4.4335938 C 16.765676 3.3253504 14.63761 4.6024941 13.568359 5.4257812 C 12.941638 5.1606973 12.396398 5 12 5 C 11.604108 5 11.059284 5.1593798 10.433594 5.4238281 C 9.6398457 4.8118211 8.2641904 3.9509638 6.8242188 4.0019531 z M 6.96875 6.0019531 C 7.72475 6.0019531 8.6149844 6.5400469 9.2089844 6.9980469 C 8.7789844 7.7990469 7.7293437 9.2359062 5.5273438 9.8789062 C 5.1153438 9.2849063 4.9324844 8.6125625 5.0214844 7.9765625 C 5.1264844 7.2325625 5.58375 6.6041562 6.34375 6.1601562 C 6.53275 6.0491563 6.74475 6.0019531 6.96875 6.0019531 z M 16.962891 6.0058594 C 17.211891 5.9945156 17.44825 6.0369531 17.65625 6.1582031 C 18.41625 6.6022031 18.874516 7.2306094 18.978516 7.9746094 C 19.067516 8.6106094 18.886609 9.2829531 18.474609 9.8769531 C 16.273609 9.2359531 15.225969 7.806 14.792969 7 C 15.355469 6.57025 16.215891 6.0398906 16.962891 6.0058594 z M 7 7 A 1 1 0 0 0 7 9 A 1 1 0 0 0 7 7 z M 17 7 A 1 1 0 0 0 17 9 A 1 1 0 0 0 17 7 z M 5.640625 12.230469 C 5.670625 12.260469 9.02 15 12 15 C 14.99 15 18.329375 12.260469 18.359375 12.230469 L 19.640625 13.769531 C 19.480625 13.899531 15.71 17 12 17 C 8.29 17 4.519375 13.899531 4.359375 13.769531 L 5.640625 12.230469 z"/></svg>