<?xml version="1.0"?><svg fill="#000000" xmlns="http://www.w3.org/2000/svg" viewBox="0 0 24 24" width="100px" height="100px">    <path d="M22,10.837L19.72,4H4.28L2,10.837c0,0.001,0,0.002,0,0.003v9.159C2,20,2,20,2.001,20h19.999C22,20,22,20,22,19.999V10.84 C22,10.839,22,10.838,22,10.837z M5.721,6h12.559l1.333,4H4.387L5.721,6z M4,12.414l1.253,1.253C5.094,13.905,5,14.192,5,14.5 C5,15.328,5.672,16,6.5,16c0.308,0,0.595-0.094,0.833-0.253L9.586,18H4V12.414z M14.414,18l2.253-2.253 C16.905,15.906,17.192,16,17.5,16c0.828,0,1.5-0.672,1.5-1.5c0-0.308-0.094-0.595-0.253-0.833L20,12.414V18H14.414z"/></svg>