<svg fill="#000000" xmlns="http://www.w3.org/2000/svg" viewBox="0 0 24 24" width="100px" height="100px"><path d="M 16 2 C 11.667 2 9 4.533 9 8 C 9 8 10.575125 7.2160625 12.328125 7.0390625 C 12.122125 7.4850625 12 7.977 12 8.5 C 12 9.1011068 12.166643 9.6581397 12.433594 10.152344 L 11.5 11.085938 L 10.707031 10.292969 L 9.2929688 11.707031 L 10.085938 12.5 L 4.5 18.085938 L 3.7070312 17.292969 L 2.2929688 18.707031 L 3.0859375 19.5 L 2.0429688 20.542969 L 3.4570312 21.957031 L 4.5 20.914062 L 5.2929688 21.707031 L 6.7070312 20.292969 L 5.9140625 19.5 L 11.5 13.914062 L 12.292969 14.707031 L 13.707031 13.292969 L 12.914062 12.5 L 13.847656 11.566406 C 14.34186 11.833357 14.898893 12 15.5 12 C 16.023 12 16.514938 11.877875 16.960938 11.671875 C 16.783938 13.424875 16 15 16 15 C 19.467 15 22 12.333 22 8 C 22 8 20.436359 9.5569219 18.693359 9.9199219 C 18.886359 9.4849219 19 9.007 19 8.5 C 19 6.567 17.433 5 15.5 5 C 14.993 5 14.515078 5.1136406 14.080078 5.3066406 C 14.443078 3.5636406 16 2 16 2 z M 14.191406 7.0019531 C 14.608406 7.0019531 15.619953 7.0759062 16.251953 7.7539062 C 17.061953 8.6249062 16.998047 9.9921875 16.998047 9.9921875 C 16.998047 9.9921875 16.927594 9.9980469 16.808594 9.9980469 C 16.391594 9.9980469 15.382953 9.9240938 14.751953 9.2460938 C 13.939953 8.3750937 14.001953 7.0078125 14.001953 7.0078125 C 14.001953 7.0078125 14.072406 7.0019531 14.191406 7.0019531 z"/></svg>