<?xml version="1.0"?><svg fill="#000000" xmlns="http://www.w3.org/2000/svg" viewBox="0 0 24 24" width="100px" height="100px">    <path d="M 12 1 C 7.375 1 3.5536875 4.506 3.0546875 9 L 1 9 L 1 15 L 2.1992188 15 C 3.1312187 19.619 7.198 23 12 23 C 16.802 23 20.867781 19.619 21.800781 15 L 23 15 L 23 9 L 20.945312 9 C 20.446313 4.506 16.625 1 12 1 z M 12 3 C 15.86 3 19 6.14 19 10 L 19 11 L 21 11 L 21 13 L 20.050781 13 L 19.951172 13.890625 C 19.503172 17.943625 16.085 21 12 21 C 7.915 21 4.4968281 17.943625 4.0488281 13.890625 L 3.9511719 13 L 3 13 L 3 11 L 5 11 L 5 10 C 5 6.14 8.14 3 12 3 z M 5 11 L 5 13 L 7 13 L 7 17 L 10 17 L 10 14 L 14 14 L 14 17 L 17 17 L 17 13 L 19 13 L 19 11 L 16 11 L 16 13 L 14 13 L 14 11 L 10 11 L 10 13 L 8 13 L 8 11 L 5 11 z M 7 8 C 7 9.105 7.895 10 9 10 C 10.105 10 11 9.105 11 8 L 7 8 z M 13 8 C 13 9.105 13.895 10 15 10 C 16.105 10 17 9.105 17 8 L 13 8 z"/></svg>