<?xml version="1.0"?><svg fill="#000000" xmlns="http://www.w3.org/2000/svg" viewBox="0 0 24 24" width="100px" height="100px">    <path d="M20.53,3.871C20.408,3.795,17.474,2,12,2S3.592,3.795,3.47,3.871L3,4.165v8.264c0,2.16,2.612,8.172,8.782,9.547L12,22.024 l0.218-0.048C18.388,20.601,21,14.588,21,12.428V4.165L20.53,3.871z M7.5,4.5c0.555-0.078,1.106-0.01,1.62,0.121 c0.404,0.11,0.775,0.252,1.161,0.436c0.092,0.028,0.174,0.068,0.253,0.12c0.031,0.017,0.059,0.025,0.09,0.043l-0.009,0.012 C10.844,5.414,11,5.684,11,6c0,0.552-0.448,1-1,1C9.764,7,9.556,6.906,9.385,6.769L9.375,6.781C9.363,6.765,9.341,6.747,9.327,6.73 C9.304,6.709,9.284,6.686,9.263,6.662c-0.204-0.23-0.472-0.473-0.737-0.665C8.204,5.769,7.86,5.588,7.5,5.5 C6.76,5.339,5.814,5.596,5,6C5.64,5.337,6.398,4.702,7.5,4.5z M11,9c-0.574,0.604-1.475,1-2.5,1S6.574,9.604,6,9 c0.574-0.604,1.475-1,2.5-1S10.426,8.396,11,9z M13,20l-1,1l-1-1v-2h2V20z M17.03,13.664l-0.542,0.775 c-0.091,0.132-0.182,0.251-0.283,0.382c-0.129,0.157-0.273,0.305-0.436,0.432c-0.641,0.524-1.533,0.766-2.39,0.638 c-0.429-0.061-0.844-0.218-1.219-0.443c-0.058-0.036-0.107-0.085-0.162-0.125c-0.055,0.039-0.103,0.089-0.161,0.124 c-0.374,0.225-0.789,0.383-1.218,0.442c-0.856,0.129-1.747-0.115-2.388-0.638c-0.163-0.127-0.306-0.275-0.435-0.432 c-0.102-0.131-0.192-0.25-0.283-0.382l-0.542-0.774C6.629,13.127,6.283,12.595,6,12c0.595,0.283,1.127,0.629,1.662,0.971 l0.774,0.542l0.376,0.276c0.092,0.062,0.19,0.11,0.286,0.155c0.392,0.17,0.808,0.189,1.172,0.084 c0.181-0.055,0.354-0.13,0.501-0.241c0.074-0.054,0.146-0.11,0.21-0.176l0.311-0.318l0.706-0.722l0.708,0.722l0.311,0.317 c0.064,0.065,0.136,0.122,0.211,0.175c0.147,0.111,0.319,0.188,0.501,0.241c0.364,0.106,0.779,0.084,1.17-0.084 c0.096-0.044,0.193-0.093,0.286-0.155l0.376-0.276l0.775-0.542C16.872,12.628,17.404,12.282,18,12 C17.718,12.596,17.372,13.128,17.03,13.664z M15.5,10c-1.025,0-1.926-0.396-2.5-1c0.574-0.604,1.475-1,2.5-1s1.926,0.396,2.5,1 C17.426,9.604,16.525,10,15.5,10z M16.5,5.5c-0.36,0.088-0.704,0.269-1.026,0.498c-0.265,0.191-0.533,0.435-0.737,0.665 c-0.021,0.024-0.041,0.046-0.064,0.068c-0.014,0.017-0.035,0.034-0.048,0.051l-0.009-0.012C14.444,6.906,14.236,7,14,7 c-0.552,0-1-0.448-1-1c0-0.316,0.156-0.586,0.385-0.769l-0.009-0.012c0.031-0.018,0.059-0.026,0.09-0.043 c0.079-0.052,0.161-0.092,0.253-0.12c0.385-0.184,0.756-0.326,1.161-0.436C15.394,4.49,15.945,4.422,16.5,4.5 C17.602,4.702,18.36,5.337,19,6C18.186,5.596,17.24,5.339,16.5,5.5z"/></svg>