<?xml version="1.0"?><svg fill="#000000" xmlns="http://www.w3.org/2000/svg" viewBox="0 0 24 24" width="100px" height="100px">    <path d="M 11 2 C 6.038 2 2 6.038 2 11 C 2 12.438 2.3597656 13.852047 3.0097656 15.123047 C 2.9027656 19.372047 5.5937344 22 7.4277344 22 C 8.7927344 22 10.016922 21.206281 10.669922 19.988281 C 10.790922 19.991281 10.90925 20.002 11.03125 20 C 13.62525 19.916 15.033281 19.287906 15.988281 18.503906 L 18.292969 20.808594 L 19.705078 19.394531 L 15.955078 15.644531 L 15.251953 16.435547 C 14.591953 17.178547 13.716563 17.912953 10.976562 18.001953 C 9.1685625 18.020953 7.4586719 17.3535 6.1386719 16.0625 C 4.7806719 14.7335 4 12.888 4 11 C 4 8.105 5.7663437 5.6157812 8.2773438 4.5507812 C 8.8103437 5.4307812 9.7693906 6 10.900391 6 C 11.300391 6 11.6 5.9007813 12 5.8007812 C 12.093 7.9357812 13.481219 9.7041719 15.199219 9.9511719 C 15.075219 10.278172 15 10.629 15 11 C 15 12.46 16.029906 13.686469 17.503906 13.980469 L 18 14 C 18.182 14 18.35825 13.976312 18.53125 13.945312 L 20.292969 15.707031 L 21.707031 14.292969 L 20.308594 12.894531 C 20.734594 12.375531 21 11.722 21 11 C 21 9.998 20.507563 9.1145938 19.726562 8.5585938 C 19.674563 8.3705937 19.612828 8.1859531 19.548828 8.0019531 C 20.407828 7.9639531 21.326672 7.056125 21.763672 5.703125 C 22.284672 4.087125 21.918313 2.4670312 20.945312 2.0820312 C 19.971312 1.6970312 18.760281 2.6945469 18.238281 4.3105469 C 18.126281 4.6565469 18.062297 4.9999844 18.029297 5.3339844 C 16.344297 3.3029844 13.773 2 11 2 z M 9 6 A 1 1.5 0 0 0 8 7.5 A 1 1.5 0 0 0 9 9 A 1 1.5 0 0 0 10 7.5 A 1 1.5 0 0 0 9 6 z M 6 8 A 1 1.5 0 0 0 5 9.5 A 1 1.5 0 0 0 6 11 A 1 1.5 0 0 0 7 9.5 A 1 1.5 0 0 0 6 8 z M 18 10 L 18.1875 10 C 18.6835 10.132 19 10.517 19 11 C 19 11.551 18.551 12 18 12 L 17.8125 12 C 17.3165 11.868 17 11.483 17 11 C 17 10.449 17.449 10 18 10 z M 11 11 L 11 16 C 12.7 16 14 14.104 14 11 L 11 11 z M 9 12 C 7.3 12 6 12.7 6 13.5 C 6 14.3 7.3 15 9 15 L 9 12 z"/></svg>