<?xml version="1.0"?><svg fill="#000000" xmlns="http://www.w3.org/2000/svg" viewBox="0 0 24 24" width="100px" height="100px">    <path d="M14.8,11.413c-0.2-0.599-0.5-1.299-0.9-1.798c-0.7-0.999-1.6-1.798-2.6-2.098C11.5,7.318,12.5,7,13.5,7 c2.35,0,3.569,0.9,4.119,1.493L18,9c0-4-3-8-9-8C4,1,3,4,3,4l0.039,0.003C3.027,4.009,3,4.021,3,4.021s3,1.998,3,4.994 c0,0-3,1.998-3,4.994c0,5.993,4,5.993,4,5.993h1C10.9,22.8,15,23,15,23v-3.996c5.4-0.499,7.4-5.694,8-9.989 C23.1,9.016,18.2,10.414,14.8,11.413z M9.5,9.415c0.7-0.499,1.9,0.1,2.8,1.398c0.9,1.199,1,2.597,0.3,3.097 c-0.318,0.227-0.741,0.217-1.19,0.028c0.065-0.023,0.13-0.048,0.188-0.084c0.565-0.356,0.532-1.251-0.074-1.999 c-0.606-0.748-1.555-1.065-2.12-0.709c-0.072,0.045-0.106,0.12-0.158,0.181C8.971,10.486,9.018,9.759,9.5,9.415z M14.5,17.206 c-2.5,0.2-2.5-0.699-2.5-0.699l-2-0.1c0,1.299,1.3,2.297,3,2.597c0,0.699,0,1.299,0,1.299c-1.6-0.1-3-1.299-4-2.297 c-1.4,0.499-3.8-0.499-3-2.997c0.4-1.099,1.2-1.598,1.9-1.798c0.1,0.1,0.2,0.3,0.3,0.4c1,1.498,2.5,2.397,3.9,2.397 c0.6,0,1.2-0.2,1.7-0.499c0.5-0.4,0.9-0.799,1.1-1.398c2-0.699,4.7-1.598,5.5-1.998C18.7,16.307,16.3,17.107,14.5,17.206z"/></svg>