<svg fill="#000000" xmlns="http://www.w3.org/2000/svg" viewBox="0 0 24 24" width="100px" height="100px"><path d="M 12 4 C 8.8176326 4 6.2329513 5.8317127 4.4023438 8.0332031 C 2.5717362 10.234694 1.4212599 12.820114 1.0195312 14.800781 C 0.69428505 16.402963 0.9807133 17.661829 1.390625 18.492188 C 1.6683607 19.054797 1.9638136 19.37645 2.1679688 19.574219 A 1.0001 1.0001 0 0 0 2.1699219 19.576172 A 1.0001 1.0001 0 0 0 2.9472656 19.998047 A 1.0001 1.0001 0 0 0 3 20 L 21 20 A 1.0001 1.0001 0 0 0 21.833984 19.572266 C 22.038592 19.37366 22.332803 19.052438 22.609375 18.492188 C 23.019287 17.661828 23.305715 16.402963 22.980469 14.800781 C 22.578239 12.820399 21.428122 10.234684 19.597656 8.0332031 C 17.76719 5.8317221 15.182367 4 12 4 z M 8.3730469 7.3808594 L 12 9.7988281 L 15.626953 7.3808594 L 16.970703 12.757812 L 15.029297 13.242188 L 14.373047 10.619141 L 12 12.201172 L 9.625 10.619141 L 8.96875 13.242188 L 7.0292969 12.757812 L 8.3730469 7.3808594 z M 12 15 C 15.258701 15 17.23148 16.132028 18.451172 17.240234 C 18.740525 17.503139 18.976875 17.759069 19.179688 18 L 4.8203125 18 C 5.0231246 17.759069 5.2594751 17.503139 5.5488281 17.240234 C 6.76852 16.132028 8.7412995 15 12 15 z"/></svg>