<?xml version="1.0"?><svg fill="#000000" xmlns="http://www.w3.org/2000/svg" viewBox="0 0 24 24" width="100px" height="100px">    <path d="M 12 2 C 8.474 2 6.0948281 4.306 5.2988281 7 L 5 7 L 3.9628906 9.0742188 C 2.7608906 10.089219 2 11.531 2 13 C 2 16.078 4.6482969 18.121203 7.5292969 18.783203 C 8.3372969 20.103203 10.006 21 12 21 C 13.994 21 15.662703 20.103203 16.470703 18.783203 C 19.351703 18.121203 22 16.078 22 13 C 22 11.531 21.239109 10.089219 20.037109 9.0742188 L 19.962891 8.9257812 L 20.488281 8.6367188 C 21.903281 7.8187188 22.376094 6.0905625 21.621094 4.7265625 L 21.244141 4 L 20.488281 4.4550781 C 19.512281 5.0190781 18.999672 6.0153437 19.013672 7.0273438 L 19 7 L 18.701172 7 C 17.905172 4.306 15.526 2 12 2 z M 12 4 C 14.412 4 15.891406 5.43 16.566406 7 L 7.4335938 7 C 8.1085938 5.43 9.588 4 12 4 z M 9 8 C 10.1 8 11 8.4 11 9 C 11 9.028 10.988375 9.0530781 10.984375 9.0800781 C 10.123375 9.2200781 9.3644219 9.5482813 8.7324219 9.9882812 C 7.7594219 9.9282813 7 9.55 7 9 C 7 8.4 7.9 8 9 8 z M 15 8 C 16.1 8 17 8.4 17 9 C 17 9.55 16.240578 9.9282813 15.267578 9.9882812 C 14.635578 9.5492812 13.875625 9.2220313 13.015625 9.0820312 C 13.010625 9.0540313 13 9.028 13 9 C 13 8.4 13.9 8 15 8 z M 4.84375 11 L 7.6875 11 C 7.2605 11.591 7 12.269 7 13 L 9 13 C 9 11.9 10.4 11 12 11 C 13.6 11 15 11.9 15 13 L 17 13 C 17 12.269 16.7395 11.591 16.3125 11 L 19.15625 11 C 19.67725 11.587 20 12.298 20 13 C 20 15.511 17.035688 16.851953 14.929688 17.001953 L 14.951172 17.320312 C 14.719172 18.271313 13.49 19 12 19 C 10.51 19 9.2798281 18.271313 9.0488281 17.320312 L 9.0722656 17.001953 C 6.9652656 16.851953 4 15.511 4 13 C 4 12.298 4.32275 11.587 4.84375 11 z M 14.007812 13.949219 C 13.876813 14.249219 12.492 15 10 15 L 10 17 C 12.89 17 16 16.061 16 14 L 14.007812 13.949219 z"/></svg>