<svg fill="#000000" xmlns="http://www.w3.org/2000/svg" viewBox="0 0 24 24" width="100px" height="100px"><path d="M 6 3 L 6 7.2753906 C 4.7407953 6.9740189 3.5294489 6.5804742 2.4023438 6.0839844 L 1.5976562 7.9160156 C 2.6896347 8.3970321 3.8412586 8.788664 5.0273438 9.1035156 C 4.8087912 9.1543677 4.5995245 9.2226987 4.4042969 9.3203125 C 3.9400482 9.5524368 3.5638928 9.9623386 3.3847656 10.410156 C 3.0265113 11.305792 3.279577 12.139372 3.5722656 12.871094 C 4.1197033 14.239688 5.0180316 15.365534 5.140625 15.517578 L 8.3828125 22 L 15.617188 22 L 18.859375 15.517578 C 18.981968 15.365534 19.880297 14.239688 20.427734 12.871094 C 20.720423 12.139372 20.973489 11.305792 20.615234 10.410156 C 20.436107 9.9623386 20.059952 9.5524368 19.595703 9.3203125 C 19.445085 9.2450033 19.285456 9.1894902 19.121094 9.1425781 C 20.248359 8.8528441 21.344455 8.4980892 22.384766 8.0644531 L 21.615234 6.21875 C 20.48246 6.6909279 19.264996 7.0641155 18 7.3476562 L 18 3 L 6 3 z M 6 9.3398438 C 9.8925013 10.212533 14.110958 10.224293 18 9.4042969 L 18 11 C 18.395833 11 18.618546 11.06806 18.701172 11.109375 C 18.783802 11.150685 18.751396 11.131414 18.759766 11.152344 C 18.776516 11.194204 18.779576 11.610628 18.572266 12.128906 C 18.157647 13.165462 17.21875 14.375 17.21875 14.375 L 17.152344 14.458984 L 15.808594 17.146484 C 15.621504 16.708394 15.310342 16.321146 14.886719 15.970703 C 14.20789 15.409142 13.218167 15 12 15 C 10.781833 15 9.7921105 15.409142 9.1132812 15.970703 C 8.6896583 16.321146 8.3784963 16.708394 8.1914062 17.146484 L 6.8476562 14.458984 L 6.78125 14.375 C 6.78125 14.375 5.8423572 13.165463 5.4277344 12.128906 C 5.220423 11.610628 5.2234887 11.194208 5.2402344 11.152344 C 5.2486044 11.131414 5.2162011 11.150645 5.2988281 11.109375 C 5.3814542 11.068063 5.6041667 11 6 11 L 6 9.3398438 z M 8.0117188 10 C 7.4527187 10 7 10.508719 7 11.136719 L 7 11.863281 C 7 12.491281 7.4527188 13 8.0117188 13 L 8.3320312 13 C 9.6660312 13 11 12.165719 11 11.136719 C 11 10.508719 10.548234 10 9.9902344 10 L 8.0117188 10 z M 13.978516 10 C 13.437516 10 13 10.508719 13 11.136719 C 13 12.165719 14.291031 13 15.582031 13 L 15.896484 13 C 16.437484 13 16.875 12.491281 16.875 11.863281 L 16.875 11.136719 C 16.875 10.508719 16.437484 10 15.896484 10 L 13.978516 10 z M 12 17 C 12.781833 17 13.29211 17.24603 13.613281 17.511719 C 13.934452 17.777407 14 18.136893 14 18 L 14 19 L 10 19 L 10 18 C 10 18.136893 10.06555 17.777407 10.386719 17.511719 C 10.70789 17.24603 11.218167 17 12 17 z"/></svg>